HIERARCHY
ROOT Hips
{
  OFFSET -102.467 93.6631 130.069
  CHANNELS 6 Xposition Yposition Zposition Zrotation Xrotation Yrotation
  JOINT LeftUpLeg
  {
    OFFSET 8.64259 1.95398 -2.38835
    CHANNELS 3 Zrotation Xrotation Yrotation
    JOINT LeftLeg
    {
      OFFSET 43.7702 0 0
      CHANNELS 3 Zrotation Xrotation Yrotation
      JOINT LeftFoot
      {
        OFFSET 40.6238 0 0
        CHANNELS 3 Zrotation Xrotation Yrotation
        JOINT LeftToeBase
        {
          OFFSET 12.7242 0 0
          CHANNELS 3 Zrotation Xrotation Yrotation
          End Site
          {
            OFFSET 0 0 0
          }
        }
      }
    }
  }
  JOINT RightUpLeg
  {
    OFFSET -8.2249 1.95398 -2.59336
    CHANNELS 3 Zrotation Xrotation Yrotation
    JOINT RightLeg
    {
      OFFSET 43.5653 0 0
      CHANNELS 3 Zrotation Xrotation Yrotation
      JOINT RightFoot
      {
        OFFSET 40.6238 0 0
        CHANNELS 3 Zrotation Xrotation Yrotation
        JOINT RightToeBase
        {
          OFFSET 12.7242 0 0
          CHANNELS 3 Zrotation Xrotation Yrotation
          End Site
          {
            OFFSET 0 0 0
          }
        }
      }
    }
  }
  JOINT Spine
  {
    OFFSET 0.165834 0.87714 6.61349
    CHANNELS 3 Zrotation Xrotation Yrotation
    JOINT Spine1
    {
      OFFSET 7.38963 1.71661e-005 0
      CHANNELS 3 Zrotation Xrotation Yrotation
      JOINT Spine2
      {
        OFFSET 11.9445 1.14441e-005 0
        CHANNELS 3 Zrotation Xrotation Yrotation
        JOINT Spine3
        {
          OFFSET 14.7254 4.19617e-005 0
          CHANNELS 3 Zrotation Xrotation Yrotation
          JOINT Spine4
          {
            OFFSET 10.9679 0 0
            CHANNELS 3 Zrotation Xrotation Yrotation
            JOINT RightShoulder
            {
              OFFSET 2.46616 -1.6653 3.69651
              CHANNELS 3 Zrotation Xrotation Yrotation
              JOINT RightArm
              {
                OFFSET 13.0012 0 0
                CHANNELS 3 Zrotation Xrotation Yrotation
                JOINT RightForeArm
                {
                  OFFSET 28.7848 1.52588e-005 0
                  CHANNELS 3 Zrotation Xrotation Yrotation
                  JOINT RightHand
                  {
                    OFFSET 26.5688 1.52588e-005 0
                    CHANNELS 3 Zrotation Xrotation Yrotation
                    End Site
                    {
                      OFFSET 0 0 0
                    }
                  }
                }
              }
            }
            JOINT LeftShoulder
            {
              OFFSET 2.38034 -1.29275 -3.7523
              CHANNELS 3 Zrotation Xrotation Yrotation
              JOINT LeftArm
              {
                OFFSET 16.3182 6.10351e-005 0
                CHANNELS 3 Zrotation Xrotation Yrotation
                JOINT LeftForeArm
                {
                  OFFSET 27.0901 0 0
                  CHANNELS 3 Zrotation Xrotation Yrotation
                  JOINT LeftHand
                  {
                    OFFSET 24.5451 1.52588e-005 0
                    CHANNELS 3 Zrotation Xrotation Yrotation
                    End Site
                    {
                      OFFSET 0 0 0
                    }
                  }
                }
              }
            }
            JOINT Neck
            {
              OFFSET 5.0226 -0.0266342 0
              CHANNELS 3 Zrotation Xrotation Yrotation
              JOINT Head
              {
                OFFSET 6.69363 2.86102e-005 0
                CHANNELS 3 Zrotation Xrotation Yrotation
                End Site
                {
                  OFFSET 0 0 0
                }
              }
            }
          }
        }
      }
    }
  }
}
MOTION
Frames:	9
Frame Time:	0.0416667
10.5677 78.3447 10.1239 91.7568 32.1992 109.29 -160.931 58.7787 75.6855 -66.127 6.42766 -2.45287 50.5664 -0.0738934 15.8852 36.8983 -2.21702 -8.66849 171.103 -6.40565 81.0633 -40.6957 -11.4759 -1.97032 66.3538 6.90084 22.2309 84.1325 -10.4924 6.69005 0.889182 9.70406 -91.5561 7.46822 1.10176 -3.12356 -4.20614 0.963322 -3.16897 -26.7218 1.98927 -2.64856 -6.70914 1.98927 -2.64856 101.435 -45.5622 -83.3733 18.4871 -9.16022 -22.2149 -13.3866 3.25624 -72.5708 -9.41873 -0.0914228 -4.24936 -90.0919 -50.9415 78.5337 -21.3458 6.33881 8.26757 1.64524 1.4609 -27.2503 11.0576 -0.723205 -9.75066 22.4204 0.647179 -19.4419 -20.8935 2.7321 29.7517 
28.1483 78.2687 0.665194 88.1845 35.5831 109.943 -160.296 44.2617 73.7846 -67.1984 13.4802 -4.32832 58.7448 16.7497 35.4862 44.1776 -2.22964 -2.60053 172.697 -5.72764 81.3594 -55.2181 -20.391 -2.65238 47.1284 11.8199 13.8896 41.5074 -3.19097 -2.62593 0.716411 9.53575 -91.0667 7.80622 0.965342 -2.15967 -3.86621 0.869358 -2.20004 -26.3942 1.56969 -1.76987 -6.38155 1.56969 -1.76987 101.989 -46.9013 -82.4521 18.3135 -15.4455 -12.3144 -16.9026 3.24938 -75.1828 -10.3648 -0.106696 -4.16764 -88.8789 -52.1854 80.5633 -6.21722 4.64005 -5.10863 -0.644125 -2.16506 -24.0192 11.7713 -0.752256 -9.70478 22.4248 0.572846 -17.3614 -20.3033 2.82131 25.1285 
42.9944 80.0241 -8.0806 82.6047 45.0933 107.24 -166.348 33.4233 72.1764 -70.2232 16.4722 -2.93061 61.1214 16.4142 33.1069 56.134 -3.18138 0.297149 174.041 15.5333 83.8721 -90.3367 -18.5233 -3.17834 46.2778 8.16681 2.12803 39.5885 -3.1003 -1.84953 -0.340707 10.0657 -90.2544 6.74066 -0.789062 -0.469929 -4.93011 -0.808987 -0.434747 -27.4659 -0.611373 -0.685359 -7.45322 -0.611365 -0.685352 101.774 -51.1298 -82.7703 20.6997 -15.5765 -2.57127 -17.0969 -5.89764 -53.2486 -11.7679 -0.201767 -3.30457 -88.6444 -49.6603 80.4394 8.77013 -5.45432 -23.9878 -1.32464 -6.22878 -26.9385 14.1862 -0.847996 -9.57192 32.3392 0.564079 -13.0807 -20.5662 3.28524 19.2762 
57.9219 83.6696 -19.8403 70.3617 53.4771 115.71 -175.748 20.4638 78.4859 -60.7119 21.9257 -0.14352 63.6067 15.1308 27.1507 59.4642 -3.92279 -0.449435 176.564 44.3378 86.5392 -99.9619 -7.87524 -3.63585 50.9196 3.10801 -2.06597 48.4047 -5.2831 -1.19514 -0.929791 9.72709 -90.4215 7.41759 -2.03906 -0.725556 -4.25194 -2.06904 -0.63509 -26.7954 -1.72678 -1.30497 -6.78281 -1.72676 -1.30496 103.156 -52.3803 -80.6656 27.6374 -14.5623 13.3288 -18.4202 -19.679 -38.1587 -9.06034 -0.221012 -2.49651 -88.093 -43.9464 80.1692 10.9349 -16.1343 -40.4437 2.44366 -3.72225 -37.9243 15.5987 -1.18872 -11.3046 33.3296 -0.325833 -9.68834 -20.8596 1.63059 15.2371 
73.6861 87.7537 -35.5421 64.4021 55.7151 124.797 -179.053 -0.231406 90.0983 -35.3366 27.4115 4.69339 48.8827 -1.99589 6.11391 46.6521 -3.43151 -8.82932 -179.103 57.7825 86.8519 -79.591 -7.74232 -2.96585 58.885 4.39722 8.86667 54.2802 -5.53959 1.69028 -1.37453 9.26404 -91.0681 8.31639 -3.21346 -1.92058 -3.35175 -3.29487 -1.77721 -25.8968 -2.48786 -2.79759 -5.88419 -2.48785 -2.79759 101.491 -49.5239 -83.2369 36.394 -13.2208 30.7571 -14.4586 -14.1505 -37.1381 -6.33428 -0.0237311 -5.33139 -85.8392 -42.6466 83.6101 10.7203 -19.287 -37.1104 8.47253 -2.79426 -65.9833 17.4935 -1.03293 -9.90607 31.2949 1.04303 -10.5246 -22.9144 2.64137 16.1796 
89.5599 89.7404 -52.969 69.4298 54.1601 121.086 178.39 -10.8932 90.0814 -40.2921 20.1156 7.13922 36.716 -10.7143 -0.00514755 34.9124 -0.196139 3.63094 175.673 52.9945 90.1308 -43.3107 -11.5986 2.90691 56.5187 8.68516 15.8975 69.2914 -5.95417 8.36145 -1.42797 9.29394 -91.3066 8.24431 -3.42449 -2.38151 -3.42401 -3.52598 -2.22842 -25.9642 -2.55081 -3.30038 -5.95152 -2.55082 -3.30039 99.7086 -49.4576 -86.0221 36.4503 -13.3631 32.0734 -7.5969 -4.62394 -36.7916 -4.62386 0.0493471 -7.23954 -83.872 -45.5885 87.1923 4.46638 -8.29231 -23.3544 6.27723 -4.32105 -82.1986 16.416 -0.569234 -7.16964 32.3208 2.03427 -13.0501 -27.2993 3.29205 20.3891 
104.504 88.8402 -69.7865 78.3106 52.5989 112.733 -179.987 -0.711948 87.8639 -83.3884 9.77996 4.16111 43.9041 -4.86213 5.89194 30.9903 -0.212821 0.505284 165.267 45.1693 95.3219 -46.0888 -12.2941 8.81583 56.3032 6.826 9.25006 44.8127 -4.33386 -1.33568 -0.999123 9.73636 -91.2213 7.37023 -2.52293 -2.2886 -4.30009 -2.62116 -2.17537 -26.8296 -1.7188 -2.94072 -6.81695 -1.71879 -2.94071 101.37 -53.6525 -83.3568 28.8193 -14.3306 17.8863 -4.84143 -0.419704 -38.2024 -4.81999 0.0429654 -7.01213 -85.7496 -51.0077 85.0104 -5.24317 8.58423 -13.5671 6.45202 -2.42325 -56.4822 12.1033 -0.851686 -10.358 32.8806 1.90312 -14.1672 -26.1441 3.51536 22.4768 
119.131 86.8282 -85.894 81.8856 49.8058 114.747 -179.802 24.8138 91.1083 -113.758 8.98395 2.76352 46.7593 0.387678 14.617 44.9237 -1.77446 0.624654 166.239 35.8441 100.54 -59.6174 -20.483 7.60116 62.4299 -0.386814 -0.250814 64.1905 -5.62955 6.85492 -0.293762 9.78256 -91.8102 7.2704 -1.3672 -3.50163 -4.40438 -1.51986 -3.43818 -26.9022 -0.252458 -3.7503 -6.88952 -0.25245 -3.7503 102.458 -53.7735 -81.7335 21.8427 -12.8168 -1.41851 -10.2146 -4.03491 -44.2851 -5.17217 -0.0490701 -4.54502 -86.8626 -57.4674 84.3022 -15.3226 15.6364 -3.00791 1.52996 11.4602 -24.7357 10.509 -0.603908 -8.73925 32.3706 3.15672 -10.2796 -24.4801 4.23664 17.5377 
134.365 88.2082 -104.243 79.696 46.9356 112.909 175.144 48.8167 93.4962 -105.426 6.73864 3.05532 53.2759 5.46694 18.254 54.0029 -1.80436 4.11502 173.535 17.6521 96.2912 -52.3389 -16.0421 2.94166 70.2147 0.0442878 7.88636 71.9895 -8.01458 5.69349 0.21189 8.95105 -91.2935 8.97987 -0.154548 -2.57533 -2.69367 -0.267704 -2.56605 -25.2094 0.626433 -2.50282 -5.19677 0.626436 -2.50282 102.432 -50.6218 -81.7545 21.3971 -10.9972 -7.4406 -11.7404 0.788615 -61.1968 -5.70192 -0.008628 -5.43724 -85.4073 -56.9724 86.2721 -26.1563 16.0169 15.8492 2.31287 22.3182 -21.5764 6.76332 -0.269805 -6.71307 27.3993 1.88932 -9.92214 -25.9531 2.71323 14.8502 
